<svg version="1.1" id="Layer_1" xmlns="http://www.w3.org/2000/svg" xmlns:xlink="http://www.w3.org/1999/xlink" x="0px" y="0px"
	 width="100%" viewBox="0 0 544 288" enable-background="new 0 0 544 288" xml:space="preserve">
<path fill="#000000" opacity="1.000000" stroke="none" 
	d="
M411.204163,222.830322 
	C415.076752,229.670502 418.811188,236.169586 422.468201,242.711975 
	C423.750793,245.006485 425.121490,246.705841 428.179688,246.687881 
	C445.344818,246.587097 462.510834,246.644775 479.676514,246.626984 
	C480.302917,246.626328 480.929077,246.403107 482.586182,246.086899 
	C446.491486,187.263123 410.682892,128.905624 374.241425,69.516724 
	C338.260925,134.338715 302.836395,198.159027 267.668579,261.516846 
	C206.498901,201.016037 145.692871,140.874893 84.382996,80.235413 
	C84.266098,82.361717 84.088943,84.087158 84.088280,85.812660 
	C84.066467,142.809845 84.062660,199.807037 84.052788,256.804230 
	C84.051491,264.308533 84.042503,264.368683 76.700150,264.308533 
	C64.602051,264.209412 65.793854,265.858978 65.787788,253.342117 
	C65.753761,183.178757 65.750809,113.015396 65.763054,42.852039 
	C65.763336,41.251797 65.248405,39.536602 65.984344,38.565929 
	C126.830109,98.692337 187.710388,158.852844 248.706711,219.128021 
	C250.258209,217.139328 249.625763,215.248444 249.626968,213.518921 
	C249.667450,155.521667 249.661423,97.524406 249.669434,39.527138 
	C249.670380,32.706173 249.690445,32.629826 256.556061,32.695484 
	C269.033844,32.814816 267.302795,31.076448 267.315369,43.631062 
	C267.373474,101.794868 267.340546,159.958771 267.340240,218.122635 
	C267.340240,219.751694 267.340240,221.380768 267.340240,223.009827 
	C267.645844,223.117126 267.951477,223.224411 268.257080,223.331696 
	C302.926392,160.828201 337.595673,98.324715 373.137268,34.248589 
	C420.535736,111.302773 467.189117,187.145721 513.803711,262.925629 
	C511.559998,264.886932 509.649414,264.289490 507.910461,264.291779 
	C478.578583,264.330322 449.246277,264.252472 419.914978,264.388550 
	C415.968719,264.406891 413.584778,263.303833 411.580170,259.706757 
	C396.658112,232.930847 381.514954,206.278168 366.449554,179.582108 
	C365.656677,178.177048 364.385742,176.927185 364.871429,174.324600 
	C370.638702,173.675888 376.531433,173.737076 382.415161,174.244507 
	C384.538910,174.427673 385.097900,176.591034 385.972778,178.132965 
	C394.355682,192.907822 402.688385,207.711136 411.204163,222.830322 
z"/>
</svg>